<svg width="84" height="84" viewBox="0 0 84 84" fill="none" xmlns="http://www.w3.org/2000/svg" xmlns:xlink="http://www.w3.org/1999/xlink">
<path d="M55.125,5.25C51.436,5.249 47.798,6.112 44.502,7.771C41.207,9.429 38.346,11.836 36.148,14.8C33.95,17.763 32.477,21.199 31.847,24.834C31.217,28.469 31.447,32.201 32.518,35.732L5.25,63L5.25,78.75L21,78.75L48.269,51.481C51.518,52.468 54.942,52.742 58.307,52.285C61.672,51.829 64.899,50.652 67.768,48.836C70.637,47.019 73.081,44.605 74.933,41.759C76.785,38.912 78.002,35.7 78.5,32.341C78.998,28.982 78.766,25.555 77.82,22.293C76.874,19.032 75.236,16.013 73.018,13.441C70.799,10.87 68.052,8.808 64.965,7.394C61.877,5.981 58.521,5.249 55.125,5.25ZM55.125,47.25C53.318,47.25 51.52,46.982 49.791,46.457L46.78,45.544L44.557,47.767L36.207,56.117L32.587,52.5L28.875,56.212L32.495,59.832L28.332,63.995L24.712,60.375L21,64.087L24.62,67.707L18.827,73.5L10.5,73.5L10.5,65.173L36.23,39.443L38.456,37.22L37.543,34.209C36.421,30.51 36.494,26.552 37.751,22.897C39.008,19.242 41.386,16.077 44.546,13.852C47.706,11.626 51.488,10.454 55.353,10.501C59.217,10.549 62.969,11.814 66.073,14.117C69.177,16.419 71.477,19.642 72.644,23.327C73.811,27.011 73.786,30.97 72.574,34.64C71.361,38.31 69.022,41.504 65.889,43.768C62.757,46.032 58.99,47.25 55.125,47.25Z" fill="#000000"/>
<circle cx="57.75" cy="26.25" r="5.25" fill="#000000"/>
</svg>
