<svg width="142" height="144" viewBox="0 0 142 144" fill="none" xmlns="http://www.w3.org/2000/svg" xmlns:xlink="http://www.w3.org/1999/xlink">
<g filter="url(#filter75_162)">
<path d="M142,72C142,111.765 110.212,144 71,144C31.788,144 0,111.765 0,72C0,32.235 31.788,0 71,0C110.212,0 142,32.235 142,72Z" fill="#D9D9D9"/>
</g>
<g filter="url(#filter82_190)">
<path d="M132,72C132,106.242 104.689,134 71,134C37.311,134 10,106.242 10,72C10,37.758 37.311,10 71,10C104.689,10 132,37.758 132,72Z" fill="#FF0000"/>
<path d="M132,72C132,106.242 104.689,134 71,134C37.311,134 10,106.242 10,72C10,37.758 37.311,10 71,10C104.689,10 132,37.758 132,72Z" fill="#FF0000"/>
<path d="M132,72C132,106.242 104.689,134 71,134C37.311,134 10,106.242 10,72C10,37.758 37.311,10 71,10C104.689,10 132,37.758 132,72Z" fill="#FF0000"/>
<path d="M132,72C132,106.242 104.689,134 71,134C37.311,134 10,106.242 10,72C10,37.758 37.311,10 71,10C104.689,10 132,37.758 132,72Z" fill="#FF0000"/>
</g>
<defs>
<filter id="filter75_162" x="-4" y="-4" width="79" height="80" filterUnits="userSpaceOnUse" color-interpolation-filters="sRGB">
<feFlood flood-opacity="0" result="BackgroundImageFix"/>
<feColorMatrix in="SourceAlpha" type="matrix" values="0 0 0 0 0 0 0 0 0 0 0 0 0 0 0 0 0 0 127 0" result="hardAlpha"/>
<feMorphology radius="0" operator="dilate" in="SourceAlpha" result="0dropshadow"/>
<feOffset dx="0" dy="4"/>
<feGaussianBlur stdDeviation="2"/>
<feComposite in2="hardAlpha" operator="out"/>
<feColorMatrix type="matrix" values="0 0 0 0 0 0 0 0 0 0 0 0 0 0 0 0 0 0 0.25 0"/>
<feBlend mode="normal" in2="BackgroundImageFix" result="0dropshadow"/>
<feBlend mode="normal" in="SourceGraphic" in2="0dropshadow" result="shape"/>
</filter>
<filter id="filter82_190" x="6" y="6" width="69" height="70" filterUnits="userSpaceOnUse" color-interpolation-filters="sRGB">
<feFlood flood-opacity="0" result="BackgroundImageFix"/>
<feColorMatrix in="SourceAlpha" type="matrix" values="0 0 0 0 0 0 0 0 0 0 0 0 0 0 0 0 0 0 127 0" result="hardAlpha"/>
<feMorphology radius="0" operator="dilate" in="SourceAlpha" result="0dropshadow"/>
<feOffset dx="0" dy="4"/>
<feGaussianBlur stdDeviation="2"/>
<feComposite in2="hardAlpha" operator="out"/>
<feColorMatrix type="matrix" values="0 0 0 0 0 0 0 0 0 0 0 0 0 0 0 0 0 0 0.25 0"/>
<feBlend mode="normal" in2="BackgroundImageFix" result="0dropshadow"/>
<feBlend mode="normal" in="SourceGraphic" in2="0dropshadow" result="shape"/>
</filter>
</defs>
</svg>
