<svg width="68" height="56" viewBox="0 0 68 56" fill="none" xmlns="http://www.w3.org/2000/svg" xmlns:xlink="http://www.w3.org/1999/xlink">
<path d="M29.625,-0.167C24.768,-0.166 19.982,0.779 15.665,2.592C11.348,4.404 7.627,7.03 4.811,10.251C1.995,13.472 0.166,17.194 -0.523,21.108C-1.212,25.021 -0.741,29.012 0.85,32.747C2.441,36.482 5.106,39.853 8.624,42.579C12.141,45.305 16.408,47.307 21.07,48.418C25.731,49.529 30.651,49.716 35.419,48.964C40.187,48.213 44.666,46.544 48.48,44.097L61.567,54.748C62.242,55.28 63.148,55.574 64.087,55.567C65.027,55.56 65.925,55.254 66.59,54.713C67.254,54.172 67.631,53.441 67.639,52.676C67.647,51.911 67.286,51.174 66.633,50.624L53.547,39.973C57.087,36.317 59.292,31.924 59.908,27.296C60.524,22.668 59.527,17.993 57.031,13.804C54.535,9.616 50.641,6.085 45.794,3.614C40.947,1.143 35.344,-0.167 29.625,-0.167ZM6.333,24.625C6.333,19.597 8.787,14.775 13.155,11.219C17.523,7.664 23.447,5.667 29.625,5.667C35.802,5.667 41.726,7.664 46.094,11.219C50.462,14.775 52.916,19.597 52.916,24.625C52.916,29.653 50.462,34.475 46.094,38.031C41.726,41.586 35.802,43.583 29.625,43.583C23.447,43.583 17.523,41.586 13.155,38.031C8.787,34.475 6.333,29.653 6.333,24.625Z" clip-rule="evenodd" fill-rule="evenodd" fill="#000000"/>
</svg>
