<svg width="60" height="64" viewBox="0 0 60 64" fill="none" xmlns="http://www.w3.org/2000/svg" xmlns:xlink="http://www.w3.org/1999/xlink">
<path d="M29,0C32.978,0 36.794,1.686 39.607,4.686C42.42,7.687 44,11.757 44,16C44,20.243 42.42,24.313 39.607,27.314C36.794,30.314 32.978,32 29,32C25.022,32 21.206,30.314 18.393,27.314C15.58,24.313 14,20.243 14,16C14,11.757 15.58,7.687 18.393,4.686C21.206,1.686 25.022,0 29,0ZM29,40C45.575,40 59,47.16 59,56L59,64L-1,64L-1,56C-1,47.16 12.425,40 29,40Z" fill="#000000"/>
</svg>
