<svg width="68" height="56" viewBox="0 0 68 56" fill="none" xmlns="http://www.w3.org/2000/svg" xmlns:xlink="http://www.w3.org/1999/xlink">
<path d="M29.626,-0.167C24.769,-0.166 19.983,0.779 15.666,2.592C11.349,4.404 7.628,7.03 4.812,10.251C1.996,13.472 0.167,17.194 -0.522,21.108C-1.211,25.021 -0.74,29.012 0.851,32.747C2.442,36.482 5.107,39.853 8.625,42.579C12.142,45.305 16.409,47.307 21.071,48.418C25.732,49.529 30.652,49.716 35.42,48.964C40.188,48.213 44.667,46.544 48.481,44.097L61.568,54.748C62.243,55.28 63.149,55.574 64.088,55.567C65.028,55.56 65.926,55.254 66.591,54.713C67.255,54.172 67.632,53.441 67.64,52.676C67.648,51.911 67.287,51.174 66.634,50.624L53.548,39.973C57.088,36.317 59.293,31.924 59.909,27.296C60.525,22.668 59.528,17.993 57.032,13.804C54.536,9.616 50.642,6.085 45.795,3.614C40.948,1.143 35.345,-0.167 29.626,-0.167ZM6.334,24.625C6.334,19.597 8.788,14.775 13.156,11.219C17.524,7.664 23.448,5.667 29.626,5.667C35.803,5.667 41.727,7.664 46.095,11.219C50.463,14.775 52.917,19.597 52.917,24.625C52.917,29.653 50.463,34.475 46.095,38.031C41.727,41.586 35.803,43.583 29.626,43.583C23.448,43.583 17.524,41.586 13.156,38.031C8.788,34.475 6.334,29.653 6.334,24.625Z" clip-rule="evenodd" fill-rule="evenodd" fill="#000000"/>
</svg>
